# xmcd
#
# Track frame offsets: 
#        150
#        17621
#        35639
#        52895
#        68733
#        89275
#        106797
#        125922
#        145165
#        162891
#        180701
#        196229
#        212083
#        228893
#        243178
#        257241
#        276998
#        292587
#        307047
#        322827
#
# Disc length: 4509 seconds
#
# Revision: 3
# Processed by: cddbd v1.5.2PL0 Copyright (c) Steve Scherf et al.
# Submitted via: ExactAudioCopy v0.90b4
#
DISCID=14119b14
DTITLE=Various Artist - 50 Jaar Nederpop 00's [CD5]
DYEAR=2008
DGENRE=Pop
TTITLE0=Counting Crows and Bløf - Holiday In Spain
TTITLE1=Ilse DeLange - The Great Escape
TTITLE2=Krezip - I Would Stay
TTITLE3=Jeroen Van Der Boom - Jij Bent Zo
TTITLE4=Boudewijn De Groot - Avond
TTITLE5=Veldhuis and Kemper - Ik Wou Dat Ik Jou Was
TTITLE6=Alain Clark - Father And Friend
TTITLE7=Kane - So Glad You Made It
TTITLE8=Within Temptation - Stand My Ground
TTITLE9=VanVelzen - Baby Get Higher
TTITLE10=Intwine - Happy?
TTITLE11=Racoon - Love You More
TTITLE12=Twarres - Wêr Bisto
TTITLE13=Ali B., Yes-R and Brace - Leipe Mocro Flavour
TTITLE14=Abel - Onderweg
TTITLE15=Lange Frans and Baas B - Het Land Van
TTITLE16=3Js - Watermensen
TTITLE17=Brainpower - Dansplaat
TTITLE18=De Jeugd Van Tegenwoordig - Watskeburt?!
TTITLE19=Di-Rect - Inside My Head
EXTD=00's
EXTT0=
EXTT1=
EXTT2=
EXTT3=
EXTT4=
EXTT5=
EXTT6=
EXTT7=
EXTT8=
EXTT9=
EXTT10=
EXTT11=
EXTT12=
EXTT13=
EXTT14=
EXTT15=
EXTT16=
EXTT17=
EXTT18=
EXTT19=
PLAYORDER=
